<svg width="262" height="519" viewBox="0 0 262 519" fill="none" xmlns="http://www.w3.org/2000/svg">
<path d="M42.6464 285.887L2.37461e-06 261.211V9.03393e-07L42.6464 24.6754V285.887Z" transform="translate(-29 113.675)" stroke="#DDDDDD" stroke-width="2" stroke-linecap="round" stroke-linejoin="round"/>
<path d="M1.74138e-07 8.5386e-06L42.6466 24.6744" transform="translate(-28.9996 269.628)" stroke="#DDDDDD" stroke-width="2" stroke-linecap="round" stroke-linejoin="round"/>
<path d="M4.22154e-06 14.9023L0.230551 14.7867L25.7642 -5.28815e-06" transform="translate(13.4447 278.72)" stroke="#DDDDDD" stroke-width="2" stroke-linecap="round" stroke-linejoin="round"/>
<path d="M42.6466 2.75865e-07L-1.372e-06 24.6744" transform="translate(13.647 113.674)" stroke="#DDDDDD" stroke-width="2" stroke-linecap="round" stroke-linejoin="round"/>
<path d="M25.5336 1.03013e-05L-4.79144e-06 14.8445" transform="translate(13.6749 384.746)" stroke="#DDDDDD" stroke-width="2" stroke-linecap="round" stroke-linejoin="round"/>
<path d="M42.6466 2.75865e-07L-1.372e-06 24.6744" transform="translate(13.647 113.674)" stroke="#DDDDDD" stroke-width="2" stroke-linecap="round" stroke-linejoin="round"/>
<path d="M25.5336 1.03013e-05L-4.79144e-06 14.8445" transform="translate(13.6749 384.746)" stroke="#DDDDDD" stroke-width="2" stroke-linecap="round" stroke-linejoin="round"/>
<path d="M42.6466 6.84155e-08L1.74138e-07 24.6745" transform="translate(-28.9999 89)" stroke="#DDDDDD" stroke-width="2" stroke-linecap="round" stroke-linejoin="round"/>
<path d="M42.6464 236.865L-4.57333e-06 212.19V1.05763e-06L42.6464 24.6696V236.865Z" transform="translate(39.2376 202.176)" stroke="#DDDDDD" stroke-width="2" stroke-linecap="round" stroke-linejoin="round"/>
<path d="M2.66309e-06 9.25074e-06L42.6466 24.6744" transform="translate(39.235 335.023)" stroke="#DDDDDD" stroke-width="2" stroke-linecap="round" stroke-linejoin="round"/>
<path d="M25.5913 -1.05763e-05L9.22406e-06 14.7867" transform="translate(81.8591 344.914)" stroke="#DDDDDD" stroke-width="2" stroke-linecap="round" stroke-linejoin="round"/>
<path d="M42.6464 187.849L2.63846e-06 163.174V-3.87798e-06L42.6464 24.6754V187.849Z" transform="translate(107.47 290.671)" stroke="#DDDDDD" stroke-width="2" stroke-linecap="round" stroke-linejoin="round"/>
<path d="M-3.44759e-07 9.96288e-06L42.6465 24.6744" transform="translate(107.469 336.882)" stroke="#DDDDDD" stroke-width="2" stroke-linecap="round" stroke-linejoin="round"/>
<path d="M41.9028 -5.28815e-06L-5.72722e-06 24.3173" transform="translate(150.852 336.481)" stroke="#DDDDDD" stroke-width="2" stroke-linecap="round" stroke-linejoin="round"/>
<path d="M42.6464 138.828L9.85025e-06 114.153V1.00475e-05L42.6464 24.6754V138.828Z" transform="translate(175.702 379.172)" stroke="#DDDDDD" stroke-width="2" stroke-linecap="round" stroke-linejoin="round"/>
<path d="M7.64098e-06 1.0675e-05L42.6466 24.6744" transform="translate(175.704 436.933)" stroke="#DDDDDD" stroke-width="2" stroke-linecap="round" stroke-linejoin="round"/>
<path d="M42.6466 1.0675e-05L5.98051e-07 24.6744" transform="translate(218.351 436.933)" stroke="#DDDDDD" stroke-width="2" stroke-linecap="round" stroke-linejoin="round"/>
<path d="M42.5945 103.276V24.6638L-1.49513e-06 -1.92797e-08" transform="translate(13.6752 89.0111)" stroke="#DDDDDD" stroke-width="2" stroke-linecap="round" stroke-linejoin="round"/>
<path d="M-8.31299e-07 211.866V1.65695e-07" transform="translate(13.6749 138.338)" stroke="#DDDDDD" stroke-width="2" stroke-linecap="round" stroke-linejoin="round"/>
<path d="M42.6522 103.276V24.6638L-1.93487e-06 4.75934e-06" transform="translate(81.8611 177.501)" stroke="#DDDDDD" stroke-width="2" stroke-linecap="round" stroke-linejoin="round"/>
<path d="M9.99756e-07 162.885V-1.59702e-06" transform="translate(81.8605 226.828)" stroke="#DDDDDD" stroke-width="2" stroke-linecap="round" stroke-linejoin="round"/>
<path d="M42.6522 103.334V24.6638L-1.05538e-06 2.99662e-06" transform="translate(150.104 265.99)" stroke="#DDDDDD" stroke-width="2" stroke-linecap="round" stroke-linejoin="round"/>
<path d="M1.15234e-06 113.789V-2.0377e-06" transform="translate(150.104 315.375)" stroke="#DDDDDD" stroke-width="2" stroke-linecap="round" stroke-linejoin="round"/>
<path d="M-1.75897e-07 1.2339e-06L42.6522 24.7216V138.857" transform="translate(218.348 354.479)" stroke="#DDDDDD" stroke-width="2" stroke-linecap="round" stroke-linejoin="round"/>
<path d="M1.30493e-06 64.8075V-3.80042e-06" transform="translate(218.348 403.864)" stroke="#DDDDDD" stroke-width="2" stroke-linecap="round" stroke-linejoin="round"/>
<path d="M2.66309e-06 24.6745L42.6466 3.19052e-06" transform="translate(39.235 177.499)" stroke="#DDDDDD" stroke-width="2" stroke-linecap="round" stroke-linejoin="round"/>
<path d="M6.61374e-06 24.6744L42.6466 -1.76624e-06" transform="translate(81.8815 202.174)" stroke="#DDDDDD" stroke-width="2" stroke-linecap="round" stroke-linejoin="round"/>
<path d="M-3.44759e-07 24.6745L42.6465 3.90266e-06" transform="translate(107.469 265.999)" stroke="#DDDDDD" stroke-width="2" stroke-linecap="round" stroke-linejoin="round"/>
<path d="M-7.38769e-06 24.6744L42.6466 9.96288e-06" transform="translate(150.116 290.673)" stroke="#DDDDDD" stroke-width="2" stroke-linecap="round" stroke-linejoin="round"/>
<path d="M7.64098e-06 24.6745L42.6466 -6.40219e-06" transform="translate(175.704 354.498)" stroke="#DDDDDD" stroke-width="2" stroke-linecap="round" stroke-linejoin="round"/>
<path d="M5.98051e-07 24.6744L42.6466 1.0675e-05" transform="translate(218.351 379.173)" stroke="#DDDDDD" stroke-width="2" stroke-linecap="round" stroke-linejoin="round"/>
<path d="M5.98051e-07 24.6744L42.6466 1.34954e-05" transform="translate(218.351 493.325)" stroke="#DDDDDD" stroke-width="2" stroke-linecap="round" stroke-linejoin="round"/>
<path d="M25.5913 2.1759e-05L6.64188e-06 14.8445" transform="translate(150.104 463.704)" stroke="#DDDDDD" stroke-width="2" stroke-linecap="round" stroke-linejoin="round"/>
<path d="M25.5913 -1.08513e-05L5.7624e-06 14.7867" transform="translate(81.8605 424.254)" stroke="#DDDDDD" stroke-width="2" stroke-linecap="round" stroke-linejoin="round"/>
<path d="M0 0C0 0 0 11.639 0 99.2018" transform="translate(196 182) rotate(14.5966)" stroke="#DDDDDD" stroke-width="2.126" stroke-miterlimit="10" stroke-linecap="round" stroke-linejoin="round" stroke-dasharray="5.67 5.67"/>
<path d="M0 0C0 0 0 10.1234 0 86.2844" transform="translate(75 92) rotate(-4.65335)" stroke="#DDDDDD" stroke-width="2.126" stroke-miterlimit="10" stroke-linecap="round" stroke-linejoin="round" stroke-dasharray="5.67 5.67"/>
<path d="M35.7948 2.6284C31.5156 4.8392 25.9064 6.0564 20 6.0564C14.0936 6.0564 8.4844 4.8388 4.2052 2.628C2.6956 1.848 1.394 0.964801 0.3048 5.37109e-07C0.1084 0.582001 0 1.1792 0 1.79C0 7.4968 8.9544 12.1232 20 12.1232C31.0456 12.1232 40 7.4968 40 1.79C40 1.1792 39.8916 0.582 39.6948 0.000400317C38.606 0.9648 37.3044 1.8484 35.7948 2.6284Z" transform="translate(176 143.877)" fill="#DDDDDD"/>
<path d="M20 20.6664C31.0457 20.6664 40 16.0401 40 10.3332C40 4.62633 31.0457 0 20 0C8.95431 0 0 4.62633 0 10.3332C0 16.0401 8.95431 20.6664 20 20.6664Z" transform="translate(176 116)" fill="#DDDDDD"/>
<path d="M35.7948 2.628C31.5156 4.8388 25.9064 6.0564 20 6.0564C14.0936 6.0564 8.4844 4.8388 4.2052 2.628C2.6956 1.848 1.394 0.9648 0.3048 3.90625e-07C0.1084 0.5816 0 1.1788 0 1.7896C0 7.4964 8.9544 12.1228 20 12.1228C31.0456 12.1228 40 7.4964 40 1.7896C40 1.1788 39.8916 0.5816 39.6948 3.90625e-07C38.606 0.9648 37.3044 1.848 35.7948 2.628Z" transform="translate(176 134.21)" fill="#DDDDDD"/>
<path d="M45.437 92C43.4074 92 41.3612 91.8657 39.354 91.6005L39.7958 88.2993C43.4521 88.7853 47.211 88.7909 50.913 88.3237L51.2064 89.9649L51.4061 91.6172L51.3247 91.6272C49.3766 91.8746 47.3928 92 45.437 92ZM67.4592 86.4895L65.8704 83.5589C69.1574 81.7945 72.2089 79.5996 74.938 77.0352L77.2375 79.4543C74.2953 82.2206 71.0061 84.5864 67.4592 86.4895ZM23.3399 86.3807C19.7997 84.4566 16.5195 82.0753 13.5918 79.3067L15.898 76.8943C18.6159 79.4642 21.6597 81.6736 24.9444 83.459L23.3399 86.3807ZM87.1831 65.9309L84.1673 64.485C85.7974 61.1228 86.9756 57.5641 87.6673 53.9111L90.9554 54.527C90.2101 58.4674 88.9404 62.3034 87.1831 65.9309ZM3.70087 65.7367C1.97373 62.1181 0.728571 58.2743 -1.87271e-07 54.3117L3.29252 53.7136C3.96865 57.3888 5.12343 60.953 6.7245 64.3086L3.70087 65.7367ZM87.7053 38.3615C87.038 34.6864 85.89 31.1199 84.2934 27.761L87.3203 26.3384C89.0419 29.9615 90.2792 33.8075 91 37.7701L87.7053 38.3615ZM3.30367 38.1662L0.0133887 37.5559C0.753117 33.6122 2.01389 29.7728 3.76335 26.1454L6.7814 27.5846C5.15913 30.9502 3.98873 34.5099 3.30367 38.1662ZM75.1444 15.1598C72.4343 12.5854 69.395 10.3716 66.1103 8.57842L67.7203 5.66003C71.2594 7.59193 74.5341 9.9788 77.4562 12.7518L75.1444 15.1598ZM15.9873 15.0188L13.6844 12.6031C16.6188 9.83454 19.9046 7.46211 23.4493 5.55017L25.0448 8.47744C21.7567 10.2496 18.7097 12.45 15.9873 15.0188ZM51.2711 3.71036C47.587 3.21546 43.7935 3.20325 40.0737 3.67485L39.9108 3.69594L39.4823 0.392498L39.6664 0.369195C43.6406 -0.134588 47.7465 -0.1246 51.7196 0.410253L51.2711 3.71036Z" transform="translate(152 90)" fill="#DDDDDD"/>
<path d="M45.437 92C43.4074 92 41.3612 91.8657 39.354 91.6005L39.7958 88.2993C43.4521 88.7853 47.211 88.7909 50.913 88.3237L51.2064 89.9649L51.4061 91.6172L51.3247 91.6272C49.3766 91.8746 47.3928 92 45.437 92ZM67.4592 86.4895L65.8704 83.5589C69.1574 81.7945 72.2089 79.5996 74.938 77.0352L77.2375 79.4543C74.2953 82.2206 71.0061 84.5864 67.4592 86.4895ZM23.3399 86.3807C19.7997 84.4566 16.5195 82.0753 13.5918 79.3067L15.898 76.8943C18.6159 79.4642 21.6597 81.6736 24.9444 83.459L23.3399 86.3807ZM87.1831 65.9309L84.1673 64.485C85.7974 61.1228 86.9756 57.5641 87.6673 53.9111L90.9554 54.527C90.2101 58.4674 88.9404 62.3034 87.1831 65.9309ZM3.70087 65.7367C1.97373 62.1181 0.728571 58.2743 -1.87271e-07 54.3117L3.29252 53.7136C3.96865 57.3888 5.12343 60.953 6.7245 64.3086L3.70087 65.7367ZM87.7053 38.3615C87.038 34.6864 85.89 31.1199 84.2934 27.761L87.3203 26.3384C89.0419 29.9615 90.2792 33.8075 91 37.7701L87.7053 38.3615ZM3.30367 38.1662L0.0133887 37.5559C0.753117 33.6122 2.01389 29.7728 3.76335 26.1454L6.7814 27.5846C5.15913 30.9502 3.98873 34.5099 3.30367 38.1662ZM75.1444 15.1598C72.4343 12.5854 69.395 10.3716 66.1103 8.57842L67.7203 5.66003C71.2594 7.59193 74.5341 9.9788 77.4562 12.7518L75.1444 15.1598ZM15.9873 15.0188L13.6844 12.6031C16.6188 9.83454 19.9046 7.46211 23.4493 5.55017L25.0448 8.47744C21.7567 10.2496 18.7097 12.45 15.9873 15.0188ZM51.2711 3.71036C47.587 3.21546 43.7935 3.20325 40.0737 3.67485L39.9108 3.69594L39.4823 0.392498L39.6664 0.369195C43.6406 -0.134588 47.7465 -0.1246 51.7196 0.410253L51.2711 3.71036Z" transform="translate(42)" fill="#DDDDDD"/>
<path d="M0 0C0 0 0 6.48171 0 55.2451" transform="translate(104.832 85.2393) rotate(-58.6273)" stroke="#DDDDDD" stroke-width="2.126" stroke-miterlimit="10" stroke-linecap="round" stroke-linejoin="round" stroke-dasharray="5.67 5.67"/>
<path d="M28.6359 1.20863e-07C22.1701 1.20863e-07 16.9989 5.18344 16.5563 11.6472C15.2533 11.9686 14.0206 12.479 12.9188 13.1863C9.6 15.1162 7.26972 19.3286 7.19063 23.7571C7.19319 30.6248 12.6795 36.2352 19.4344 36.2352H27.6V43.4965C27.6 44.8564 26.5504 45.9137 25.2 45.9137H23.8266C23.2875 43.8388 21.4211 42.2878 19.2 42.2878C16.5633 42.2878 14.4 44.4665 14.4 47.1223C14.4 49.7779 16.5633 51.9569 19.2 51.9569C21.4196 51.9569 23.286 50.4036 23.8266 48.331H25.2C27.8385 48.331 30 46.1537 30 43.4965V21.7411H27.6V33.818H19.4344C13.9925 33.818 9.59062 29.3333 9.59063 23.7524C9.5899 20.1248 11.4806 16.9142 14.3625 15.1409C14.5232 15.0417 14.693 14.9569 14.8594 14.8671C15.1698 14.7002 15.4856 14.5471 15.8156 14.4138C15.9822 14.3462 16.1509 14.2834 16.3219 14.225C16.7223 14.0888 17.136 13.9787 17.5594 13.8945C18.1683 13.7741 18.7893 13.6915 19.4344 13.6915C22.2835 13.6915 24.8387 14.9178 26.6391 16.8925C27.7159 18.1646 29.5725 16.4484 28.4063 15.2589C26.174 12.8105 22.9718 11.2742 19.4344 11.2742C19.2564 11.2742 19.0856 11.3043 18.9094 11.312C19.4802 6.29495 23.5853 2.41726 28.6359 2.41726C33.3587 2.41968 37.4119 5.8325 38.3016 10.5897C38.4561 11.4239 39.3937 11.8422 40.1109 11.397C41.6487 10.4412 43.4076 9.93341 45.2016 9.93341C50.6435 9.93341 55.0453 14.4133 55.0453 19.9943C55.0454 20.6618 55.5826 21.2029 56.2453 21.2029C59.6541 21.2029 62.4094 24.0045 62.4094 27.5105C62.4094 31.0165 59.6541 33.818 56.2453 33.818H44.4V21.7411H42V43.4965C42 46.1537 44.1615 48.331 46.8 48.331H48.1734C48.714 50.4036 50.5804 51.9569 52.8 51.9569C55.4368 51.9569 57.6 49.7779 57.6 47.1223C57.6 44.4665 55.4368 42.2878 52.8 42.2878C50.5789 42.2878 48.7125 43.8388 48.1734 45.9137H46.8C45.4496 45.9137 44.4 44.8564 44.4 43.4965V36.2352H56.2453C60.9687 36.2352 64.8094 32.3053 64.8094 27.5105C64.8094 23.0762 61.4778 19.524 57.2484 18.9934C56.7221 12.6118 51.6094 7.51616 45.2016 7.51616C43.4394 7.51616 41.8028 8.20314 40.2141 8.94668C38.6732 3.7433 34.0769 0.00290198 28.6359 1.2735e-06V1.20863e-07ZM32.4 16.9066V38.6619H34.8V16.9066H32.4ZM37.2 16.9066V38.6619H39.6V16.9066H37.2ZM32.4 41.0792V43.4965H34.8V41.0792H32.4ZM37.2 41.0792V43.4965H39.6V41.0792H37.2ZM19.2 44.7051C20.5397 44.7051 21.6 45.773 21.6 47.1223C21.6 48.4717 20.5397 49.5396 19.2 49.5396C17.8603 49.5396 16.8 48.4717 16.8 47.1223C16.8 45.773 17.8603 44.7051 19.2 44.7051ZM52.8 44.7051C54.1397 44.7051 55.2 45.773 55.2 47.1223C55.2 48.4717 54.1397 49.5396 52.8 49.5396C51.4603 49.5396 50.4 48.4717 50.4 47.1223C50.4 45.773 51.4603 44.7051 52.8 44.7051ZM0 45.9137V48.331H2.4V45.9137H0ZM4.8 45.9137V48.331H7.2V45.9137H4.8ZM9.6 45.9137V48.331H12V45.9137H9.6ZM32.4 45.9137V48.331H34.8V45.9137H32.4ZM37.2 45.9137V48.331H39.6V45.9137H37.2ZM60 45.9137V48.331H62.4V45.9137H60ZM64.8 45.9137V48.331H67.2V45.9137H64.8ZM69.6 45.9137V48.331H72V45.9137H69.6ZM32.4 50.7482V53.1655H34.8V50.7482H32.4ZM37.2 50.7482V53.1655H39.6V50.7482H37.2ZM32.4 55.5827V58H34.8V55.5827H32.4ZM37.2 55.5827V58H39.6V55.5827H37.2Z" transform="translate(52 14)" fill="#DDDDDD"/>
</svg>
